<svg xmlns="http://www.w3.org/2000/svg" xmlns:xlink="http://www.w3.org/1999/xlink" width="128" zoomAndPan="magnify" viewBox="0 0 96 95.999999" height="128" preserveAspectRatio="xMidYMid meet" version="1.0"><defs><clipPath id="0543e15076"><path d="M 25.386719 21.050781 L 70.386719 21.050781 L 70.386719 75.050781 L 25.386719 75.050781 Z M 25.386719 21.050781 " clip-rule="nonzero"/></clipPath></defs><rect x="-9.6" width="115.2" fill="#ffffff" y="-9.6" height="115.199999" fill-opacity="1"/><rect x="-9.6" width="115.2" fill="#000000" y="-9.6" height="115.199999" fill-opacity="1"/><g clip-path="url(#0543e15076)"><path fill="#ffffff" d="M 70.617188 75.453125 L 53.550781 75.453125 L 42.953125 58.242188 L 38.867188 58.242188 L 38.867188 75.453125 L 24.285156 75.453125 L 24.261719 57.972656 L 38.796875 44.65625 L 44.757812 44.6875 C 47.859375 44.722656 50.6875 42.542969 50.6875 39.167969 C 50.6875 35.761719 47.824219 33.648438 44.757812 33.648438 L 38.796875 33.648438 L 24.214844 20.535156 L 45.066406 20.535156 C 56.921875 20.535156 65.40625 28.539062 65.40625 38.386719 C 65.40625 45.234375 61.28125 50.960938 55.902344 53.414062 Z M 70.617188 75.453125 " fill-opacity="1" fill-rule="nonzero"/></g></svg>