<svg xmlns="http://www.w3.org/2000/svg" xmlns:xlink="http://www.w3.org/1999/xlink" width="128" zoomAndPan="magnify" viewBox="0 0 96 95.999999" height="128" preserveAspectRatio="xMidYMid meet" version="1.0"><defs><clipPath id="5cbe65d8c3"><path d="M 7.503906 0 L 88.503906 0 L 88.503906 96 L 7.503906 96 Z M 7.503906 0 " clip-rule="nonzero"/></clipPath></defs><g clip-path="url(#5cbe65d8c3)"><path fill="#07c42c" d="M 88.503906 95.933594 L 58.710938 95.933594 L 40.214844 65.890625 L 33.082031 65.890625 L 33.082031 95.933594 L 7.625 95.933594 L 7.585938 65.414062 L 32.957031 42.167969 L 43.367188 42.230469 C 48.78125 42.289062 53.714844 38.480469 53.714844 32.59375 C 53.714844 26.644531 48.71875 22.960938 43.367188 22.960938 L 32.960938 22.960938 L 7.503906 0.0625 L 43.902344 0.0625 C 64.597656 0.0625 79.410156 14.039062 79.410156 31.230469 C 79.410156 43.183594 72.210938 53.175781 62.816406 57.457031 Z M 88.503906 95.933594 " fill-opacity="1" fill-rule="nonzero"/></g></svg>