<svg xmlns="http://www.w3.org/2000/svg" xmlns:xlink="http://www.w3.org/1999/xlink" width="300" zoomAndPan="magnify" viewBox="0 0 224.87999 225" height="300" preserveAspectRatio="xMidYMid meet" version="1.0"><defs><g/></defs><g fill="#ffffff" fill-opacity="1"><g transform="translate(75.451918, 115.048652)"><g><path d="M 4.921875 -4.703125 C 3.117188 -1.046875 2.164062 0.882812 2.0625 1.09375 C 1.945312 1.3125 1.828125 1.546875 1.703125 1.796875 C 1.671875 1.859375 1.644531 1.921875 1.625 1.984375 C 1.382812 2.453125 1.148438 2.925781 0.921875 3.40625 C -0.492188 6.28125 -1.847656 9.164062 -3.140625 12.0625 C -3.140625 12.101562 -3.148438 12.140625 -3.171875 12.171875 C -3.191406 12.234375 -3.222656 12.300781 -3.265625 12.375 C -3.441406 12.613281 -3.65625 12.71875 -3.90625 12.6875 C -3.976562 12.695312 -4.050781 12.695312 -4.125 12.6875 C -4.257812 12.65625 -4.363281 12.59375 -4.4375 12.5 C -4.519531 12.414062 -4.535156 12.296875 -4.484375 12.140625 C -4.296875 11.578125 -4.070312 11.015625 -3.8125 10.453125 C -2.914062 8.546875 -2.023438 6.628906 -1.140625 4.703125 C -0.609375 3.546875 -0.0703125 2.390625 0.46875 1.234375 C 0.695312 0.773438 1.421875 -0.679688 2.640625 -3.140625 C 3.859375 -5.609375 4.566406 -7.054688 4.765625 -7.484375 C 6.367188 -10.742188 8.050781 -13.976562 9.8125 -17.1875 C 10.945312 -19.269531 12.0625 -21.375 13.15625 -23.5 C 13.28125 -23.75 13.4375 -23.976562 13.625 -24.1875 C 13.78125 -24.34375 13.96875 -24.4375 14.1875 -24.46875 C 14.257812 -24.5 14.332031 -24.503906 14.40625 -24.484375 C 14.570312 -24.503906 14.703125 -24.457031 14.796875 -24.34375 C 14.890625 -24.238281 14.910156 -24.109375 14.859375 -23.953125 C 14.816406 -23.835938 14.765625 -23.71875 14.703125 -23.59375 C 14.398438 -22.851562 14.054688 -22.117188 13.671875 -21.390625 C 12.398438 -18.941406 11.113281 -16.492188 9.8125 -14.046875 C 9.144531 -12.796875 8.484375 -11.546875 7.828125 -10.296875 C 7.503906 -9.691406 7.1875 -9.082031 6.875 -8.46875 C 6.757812 -8.238281 6.640625 -8.007812 6.515625 -7.78125 C 6.492188 -7.738281 6.476562 -7.703125 6.46875 -7.671875 C 6.414062 -7.585938 6.375 -7.5 6.34375 -7.40625 C 6.320312 -7.320312 6.328125 -7.242188 6.359375 -7.171875 C 6.410156 -7.109375 6.476562 -7.066406 6.5625 -7.046875 C 6.65625 -7.066406 6.742188 -7.082031 6.828125 -7.09375 C 6.859375 -7.113281 6.894531 -7.132812 6.9375 -7.15625 C 7.875 -7.425781 8.816406 -7.695312 9.765625 -7.96875 C 12.410156 -8.75 15.039062 -9.566406 17.65625 -10.421875 C 20.28125 -11.285156 22.878906 -12.238281 25.453125 -13.28125 C 27.066406 -13.9375 28.660156 -14.628906 30.234375 -15.359375 C 31.804688 -16.085938 33.347656 -16.898438 34.859375 -17.796875 C 36.128906 -18.535156 37.320312 -19.40625 38.4375 -20.40625 C 38.988281 -20.894531 39.472656 -21.453125 39.890625 -22.078125 C 40.722656 -23.328125 40.773438 -24.492188 40.046875 -25.578125 C 39.597656 -26.222656 39.03125 -26.753906 38.34375 -27.171875 C 37.3125 -27.835938 36.195312 -28.359375 35 -28.734375 C 32.050781 -29.628906 28.988281 -30.203125 25.8125 -30.453125 C 23.945312 -30.578125 22.054688 -30.648438 20.140625 -30.671875 C 19.109375 -30.671875 18.070312 -30.644531 17.03125 -30.59375 C 15.46875 -30.53125 13.898438 -30.394531 12.328125 -30.1875 C 10.753906 -29.976562 9.1875 -29.625 7.625 -29.125 C 6.632812 -28.800781 5.664062 -28.390625 4.71875 -27.890625 C 3.988281 -27.546875 3.34375 -27.09375 2.78125 -26.53125 C 2.625 -26.351562 2.441406 -26.222656 2.234375 -26.140625 C 2.128906 -26.085938 2.035156 -26.070312 1.953125 -26.09375 C 1.785156 -26.070312 1.640625 -26.125 1.515625 -26.25 C 1.359375 -26.414062 1.359375 -26.601562 1.515625 -26.8125 C 1.765625 -27.132812 2.046875 -27.414062 2.359375 -27.65625 C 2.671875 -27.90625 3 -28.125 3.34375 -28.3125 C 4.925781 -29.21875 6.566406 -29.882812 8.265625 -30.3125 C 10.347656 -30.84375 12.429688 -31.171875 14.515625 -31.296875 C 16.535156 -31.453125 18.5625 -31.535156 20.59375 -31.546875 L 20.640625 -31.546875 C 21.015625 -31.546875 21.398438 -31.546875 21.796875 -31.546875 C 23.734375 -31.515625 25.65625 -31.414062 27.5625 -31.25 C 29.46875 -31.09375 31.351562 -30.804688 33.21875 -30.390625 C 34.175781 -30.171875 35.117188 -29.910156 36.046875 -29.609375 C 36.972656 -29.304688 37.867188 -28.929688 38.734375 -28.484375 C 39.671875 -28.023438 40.492188 -27.421875 41.203125 -26.671875 C 42.742188 -24.984375 42.664062 -23.109375 40.96875 -21.046875 C 40.175781 -20.128906 39.289062 -19.328125 38.3125 -18.640625 C 37.070312 -17.753906 35.800781 -16.953125 34.5 -16.234375 C 33.195312 -15.523438 31.863281 -14.867188 30.5 -14.265625 C 27.695312 -12.972656 24.863281 -11.816406 22 -10.796875 C 19.132812 -9.773438 16.25 -8.832031 13.34375 -7.96875 C 11.070312 -7.28125 8.804688 -6.625 6.546875 -6 C 6.179688 -5.914062 5.859375 -5.769531 5.578125 -5.5625 C 5.304688 -5.363281 5.085938 -5.078125 4.921875 -4.703125 Z M 44.390625 5.015625 C 45.140625 5.660156 40.691406 4.539062 31.046875 1.65625 C 24.429688 -0.351562 17.757812 -2.253906 11.03125 -4.046875 C 9.15625 -4.515625 7.273438 -4.972656 5.390625 -5.421875 C 4.628906 -5.617188 3.867188 -5.800781 3.109375 -5.96875 C 2.859375 -6.03125 2.601562 -6.082031 2.34375 -6.125 C 2.289062 -6.125 2.238281 -6.128906 2.1875 -6.140625 C 2.019531 -6.140625 2.046875 -6.367188 2.265625 -6.828125 C 2.484375 -7.285156 2.757812 -7.429688 3.09375 -7.265625 C 3.519531 -7.035156 4.53125 -6.695312 6.125 -6.25 C 7.726562 -5.8125 9.789062 -5.25 12.3125 -4.5625 C 17.101562 -3.300781 22.828125 -1.695312 29.484375 0.25 C 38.679688 2.78125 43.648438 4.367188 44.390625 5.015625 Z M 44.390625 5.015625 "/></g></g></g><g fill="#ffffff" fill-opacity="1"><g transform="translate(101.335614, 115.048652)"><g><path d="M 4.65625 -4.9375 C 4.238281 -4.4375 3.742188 -3.976562 3.171875 -3.5625 C 2.597656 -3.15625 1.953125 -2.878906 1.234375 -2.734375 C 0.515625 -2.585938 -0.0390625 -2.640625 -0.4375 -2.890625 C -0.832031 -3.140625 -0.910156 -3.695312 -0.671875 -4.5625 C -0.359375 -5.445312 0.0703125 -6.289062 0.625 -7.09375 C 0.75 -7.269531 0.925781 -7.390625 1.15625 -7.453125 C 1.332031 -7.492188 1.484375 -7.460938 1.609375 -7.359375 C 1.734375 -7.265625 1.78125 -7.144531 1.75 -7 C 1.632812 -6.71875 1.503906 -6.4375 1.359375 -6.15625 C 1.222656 -5.875 1.132812 -5.691406 1.09375 -5.609375 C 0.8125 -5.109375 0.617188 -4.585938 0.515625 -4.046875 C 0.515625 -3.734375 0.929688 -3.710938 1.765625 -3.984375 C 2.597656 -4.253906 3.410156 -4.753906 4.203125 -5.484375 C 4.992188 -6.210938 5.367188 -6.425781 5.328125 -6.125 C 5.296875 -5.832031 5.070312 -5.4375 4.65625 -4.9375 Z M 2.609375 -8.859375 C 2.566406 -8.828125 2.484375 -8.785156 2.359375 -8.734375 C 2.242188 -8.691406 2.117188 -8.660156 1.984375 -8.640625 C 1.847656 -8.628906 1.738281 -8.65625 1.65625 -8.71875 C 1.582031 -8.78125 1.582031 -8.90625 1.65625 -9.09375 C 1.78125 -9.414062 1.910156 -9.695312 2.046875 -9.9375 C 2.179688 -10.1875 2.359375 -10.460938 2.578125 -10.765625 C 2.710938 -10.898438 2.863281 -10.972656 3.03125 -10.984375 C 3.195312 -10.992188 3.332031 -10.945312 3.4375 -10.84375 C 3.550781 -10.75 3.582031 -10.617188 3.53125 -10.453125 C 3.363281 -9.828125 3.054688 -9.296875 2.609375 -8.859375 Z M 2.609375 -8.859375 "/></g></g></g><g fill="#ffffff" fill-opacity="1"><g transform="translate(105.901259, 115.048652)"><g><path d="M 7.3125 -5.65625 C 6.269531 -4.425781 5.242188 -3.515625 4.234375 -2.921875 C 3.234375 -2.335938 2.160156 -2.144531 1.015625 -2.34375 C -0.117188 -2.539062 -0.585938 -3.3125 -0.390625 -4.65625 C -0.242188 -5.320312 -0.0507812 -5.972656 0.1875 -6.609375 C 0.789062 -8.109375 1.398438 -9.59375 2.015625 -11.0625 C 2.210938 -11.59375 2.425781 -12.128906 2.65625 -12.671875 C 2.707031 -12.785156 2.757812 -12.898438 2.8125 -13.015625 C 2.894531 -13.210938 2.976562 -13.414062 3.0625 -13.625 C 3.1875 -13.96875 3.050781 -14.144531 2.65625 -14.15625 C 2.425781 -14.15625 2.203125 -14.15625 1.984375 -14.15625 C 1.890625 -14.15625 1.78125 -14.15625 1.65625 -14.15625 C 1.53125 -14.144531 1.40625 -14.128906 1.28125 -14.109375 C 1.082031 -14.097656 0.882812 -14.09375 0.6875 -14.09375 C 0.488281 -14.09375 0.300781 -14.140625 0.125 -14.234375 C 0.0820312 -14.253906 0.046875 -14.285156 0.015625 -14.328125 C -0.00390625 -14.367188 -0.015625 -14.414062 -0.015625 -14.46875 C -0.00390625 -14.5 0.015625 -14.535156 0.046875 -14.578125 C 0.0859375 -14.628906 0.132812 -14.660156 0.1875 -14.671875 C 0.351562 -14.742188 0.53125 -14.796875 0.71875 -14.828125 C 1.207031 -14.847656 1.691406 -14.867188 2.171875 -14.890625 C 2.359375 -14.890625 2.519531 -14.890625 2.65625 -14.890625 C 2.96875 -14.890625 3.195312 -14.898438 3.34375 -14.921875 C 3.5 -14.941406 3.625 -15.019531 3.71875 -15.15625 C 3.8125 -15.300781 3.921875 -15.519531 4.046875 -15.8125 C 4.117188 -15.96875 4.207031 -16.140625 4.3125 -16.328125 C 4.570312 -16.867188 4.828125 -17.425781 5.078125 -18 C 5.203125 -18.257812 5.328125 -18.507812 5.453125 -18.75 C 5.546875 -18.988281 5.703125 -19.175781 5.921875 -19.3125 C 6.128906 -19.414062 6.3125 -19.40625 6.46875 -19.28125 C 6.519531 -19.25 6.554688 -19.195312 6.578125 -19.125 C 6.609375 -19.0625 6.625 -19.003906 6.625 -18.953125 C 6.625 -18.640625 6.546875 -18.335938 6.390625 -18.046875 C 6.359375 -17.984375 6.320312 -17.910156 6.28125 -17.828125 C 6.1875 -17.546875 6.082031 -17.257812 5.96875 -16.96875 C 5.738281 -16.4375 5.519531 -15.894531 5.3125 -15.34375 C 5.257812 -15.238281 5.257812 -15.144531 5.3125 -15.0625 C 5.363281 -14.988281 5.441406 -14.953125 5.546875 -14.953125 C 6.097656 -14.941406 6.640625 -14.9375 7.171875 -14.9375 C 7.441406 -14.9375 7.710938 -14.9375 7.984375 -14.9375 C 8.847656 -14.914062 9.191406 -14.789062 9.015625 -14.5625 C 8.898438 -14.4375 8.773438 -14.363281 8.640625 -14.34375 C 8.503906 -14.320312 8.363281 -14.320312 8.21875 -14.34375 C 8.132812 -14.34375 8.050781 -14.34375 7.96875 -14.34375 C 7.09375 -14.289062 6.222656 -14.253906 5.359375 -14.234375 C 4.960938 -14.234375 4.695312 -14.054688 4.5625 -13.703125 C 4.425781 -13.359375 4.289062 -13.015625 4.15625 -12.671875 C 3.957031 -12.222656 3.773438 -11.78125 3.609375 -11.34375 C 3.429688 -10.9375 3.257812 -10.53125 3.09375 -10.125 C 2.644531 -9.070312 2.210938 -8.019531 1.796875 -6.96875 C 1.546875 -6.28125 1.34375 -5.578125 1.1875 -4.859375 C 0.863281 -3.554688 1.367188 -3.054688 2.703125 -3.359375 C 4.015625 -3.671875 5.390625 -4.613281 6.828125 -6.1875 C 7.453125 -6.59375 7.613281 -6.414062 7.3125 -5.65625 Z M 7.3125 -5.65625 "/></g></g></g><g fill="#ffffff" fill-opacity="1"><g transform="translate(112.55071, 115.048652)"><g><path d="M 0.296875 -2.078125 C -0.441406 -2.078125 -0.8125 -2.460938 -0.8125 -3.234375 C -0.8125 -4.179688 -0.203125 -5.847656 1.015625 -8.234375 C 1.066406 -8.335938 1.15625 -8.390625 1.28125 -8.390625 C 1.769531 -8.390625 2.015625 -8.191406 2.015625 -7.796875 C 2.015625 -7.660156 1.972656 -7.488281 1.890625 -7.28125 C 1.859375 -7.226562 1.445312 -6.195312 0.65625 -4.1875 C 0.53125 -3.863281 0.46875 -3.625 0.46875 -3.46875 C 0.46875 -3.289062 0.546875 -3.203125 0.703125 -3.203125 C 1.273438 -3.203125 2.769531 -4.617188 5.1875 -7.453125 C 5.5 -7.835938 5.804688 -8.03125 6.109375 -8.03125 C 6.554688 -8.03125 6.78125 -7.867188 6.78125 -7.546875 C 6.78125 -7.421875 6.644531 -6.945312 6.375 -6.125 C 6 -5.007812 5.8125 -4.363281 5.8125 -4.1875 C 5.8125 -3.9375 5.894531 -3.8125 6.0625 -3.8125 C 6.488281 -3.8125 7.742188 -4.570312 9.828125 -6.09375 C 9.941406 -6.195312 10.039062 -6.25 10.125 -6.25 C 10.320312 -6.25 10.421875 -6.085938 10.421875 -5.765625 C 10.421875 -5.679688 10.394531 -5.609375 10.34375 -5.546875 C 9.238281 -4.609375 8.300781 -3.890625 7.53125 -3.390625 C 6.820312 -2.941406 6.195312 -2.71875 5.65625 -2.71875 L 5.5 -2.71875 C 4.6875 -2.882812 4.28125 -3.515625 4.28125 -4.609375 C 3.425781 -3.847656 2.710938 -3.234375 2.140625 -2.765625 C 1.578125 -2.304688 0.960938 -2.078125 0.296875 -2.078125 Z M 0.296875 -2.078125 "/></g></g></g><g fill="#ffffff" fill-opacity="1"><g transform="translate(122.173683, 115.048652)"><g><path d="M 5.625 -7.1875 C 5.550781 -6.644531 5.296875 -6.289062 4.859375 -6.125 C 4.421875 -5.96875 4.273438 -6.1875 4.421875 -6.78125 C 4.578125 -7.375 4.3125 -7.523438 3.625 -7.234375 C 2.9375 -6.941406 2.375 -6.570312 1.9375 -6.125 C 1.25 -5.425781 0.640625 -4.671875 0.109375 -3.859375 C 0.046875 -3.785156 0.00390625 -3.722656 -0.015625 -3.671875 C -0.171875 -3.453125 -0.328125 -3.238281 -0.484375 -3.03125 C -0.585938 -2.894531 -0.707031 -2.804688 -0.84375 -2.765625 C -0.976562 -2.734375 -1.117188 -2.726562 -1.265625 -2.75 C -1.398438 -2.769531 -1.5 -2.820312 -1.5625 -2.90625 C -1.632812 -2.988281 -1.644531 -3.085938 -1.59375 -3.203125 C -1.507812 -3.421875 -1.40625 -3.640625 -1.28125 -3.859375 C -0.582031 -5.160156 0.128906 -6.46875 0.859375 -7.78125 C 0.867188 -7.789062 0.875 -7.804688 0.875 -7.828125 C 0.976562 -8.023438 1.097656 -8.210938 1.234375 -8.390625 C 1.390625 -8.554688 1.566406 -8.625 1.765625 -8.59375 C 1.972656 -8.5625 2.113281 -8.441406 2.1875 -8.234375 C 2.269531 -7.960938 2.34375 -7.804688 2.40625 -7.765625 C 2.46875 -7.734375 2.609375 -7.757812 2.828125 -7.84375 C 3.296875 -8.019531 3.753906 -8.140625 4.203125 -8.203125 C 4.648438 -8.273438 5.015625 -8.257812 5.296875 -8.15625 C 5.585938 -8.050781 5.695312 -7.726562 5.625 -7.1875 Z M 5.625 -7.1875 "/></g></g></g><g fill="#ffffff" fill-opacity="1"><g transform="translate(128.027073, 115.048652)"><g><path d="M 8.484375 -5.96875 C 8.671875 -5.863281 8.6875 -5.609375 8.53125 -5.203125 C 8.3125 -4.898438 8.070312 -4.617188 7.8125 -4.359375 C 7.550781 -4.109375 7.269531 -3.878906 6.96875 -3.671875 C 6.945312 -3.671875 6.9375 -3.664062 6.9375 -3.65625 C 6.726562 -3.507812 6.507812 -3.390625 6.28125 -3.296875 C 4.414062 -2.617188 3.46875 -3.007812 3.4375 -4.46875 C 2.675781 -3.8125 2.164062 -3.410156 1.90625 -3.265625 C 1.289062 -2.898438 0.625 -2.738281 -0.09375 -2.78125 C -0.625 -2.8125 -0.984375 -2.972656 -1.171875 -3.265625 C -1.367188 -3.554688 -1.351562 -3.953125 -1.125 -4.453125 C -0.78125 -5.242188 -0.289062 -5.945312 0.34375 -6.5625 C 1.082031 -7.25 1.90625 -7.796875 2.8125 -8.203125 C 3.289062 -8.453125 3.796875 -8.546875 4.328125 -8.484375 C 4.859375 -8.453125 5.179688 -8.15625 5.296875 -7.59375 C 5.335938 -7.414062 5.296875 -7.257812 5.171875 -7.125 C 4.992188 -6.96875 4.789062 -6.9375 4.5625 -7.03125 C 4.550781 -7.03125 4.53125 -7.03125 4.5 -7.03125 C 4.476562 -7.039062 4.457031 -7.054688 4.4375 -7.078125 C 4.207031 -7.390625 3.976562 -7.519531 3.75 -7.46875 C 3.519531 -7.414062 3.273438 -7.3125 3.015625 -7.15625 C 1.816406 -6.445312 0.925781 -5.46875 0.34375 -4.21875 C 0.3125 -4.164062 0.289062 -4.101562 0.28125 -4.03125 C 0.269531 -3.96875 0.289062 -3.914062 0.34375 -3.875 C 0.476562 -3.832031 0.628906 -3.84375 0.796875 -3.90625 C 0.972656 -3.96875 1.144531 -4.0625 1.3125 -4.1875 C 1.488281 -4.320312 1.632812 -4.429688 1.75 -4.515625 C 1.769531 -4.546875 1.78125 -4.5625 1.78125 -4.5625 C 2.351562 -5.03125 2.910156 -5.515625 3.453125 -6.015625 C 3.691406 -6.273438 3.992188 -6.421875 4.359375 -6.453125 C 4.867188 -6.453125 5.082031 -6.222656 5 -5.765625 C 4.957031 -5.585938 4.90625 -5.414062 4.84375 -5.25 C 4.644531 -4.507812 4.640625 -4.070312 4.828125 -3.9375 C 5.015625 -3.8125 5.300781 -3.8125 5.6875 -3.9375 C 6.070312 -4.070312 6.457031 -4.316406 6.84375 -4.671875 C 7.226562 -5.035156 7.550781 -5.367188 7.8125 -5.671875 C 8.082031 -5.972656 8.304688 -6.070312 8.484375 -5.96875 Z M 8.484375 -5.96875 "/></g></g></g><g fill="#ffffff" fill-opacity="1"><g transform="translate(135.788674, 115.048652)"><g><path d="M 2.546875 -9.9375 C 2.296875 -9.675781 2.066406 -9.550781 1.859375 -9.5625 C 1.660156 -9.570312 1.609375 -9.789062 1.703125 -10.21875 C 1.828125 -10.851562 2.109375 -11.429688 2.546875 -11.953125 C 2.640625 -12.035156 2.742188 -12.082031 2.859375 -12.09375 C 2.984375 -12.113281 3.101562 -12.097656 3.21875 -12.046875 C 3.269531 -12.015625 3.320312 -11.96875 3.375 -11.90625 C 3.425781 -11.84375 3.453125 -11.785156 3.453125 -11.734375 C 3.347656 -11.035156 3.046875 -10.4375 2.546875 -9.9375 Z M 5.4375 -6.046875 C 5.488281 -6.046875 5.535156 -6.03125 5.578125 -6 C 5.617188 -5.976562 5.648438 -5.953125 5.671875 -5.921875 C 5.671875 -5.890625 5.660156 -5.847656 5.640625 -5.796875 C 5.628906 -5.742188 5.601562 -5.695312 5.5625 -5.65625 C 5.375 -5.5 5.164062 -5.351562 4.9375 -5.21875 C 4.550781 -5 4.164062 -4.765625 3.78125 -4.515625 C 2.769531 -3.890625 1.75 -3.300781 0.71875 -2.75 C -0.0703125 -2.320312 -0.617188 -1.703125 -0.921875 -0.890625 C -1.609375 0.722656 -2.332031 2.320312 -3.09375 3.90625 C -3.414062 4.644531 -3.773438 5.363281 -4.171875 6.0625 C -4.566406 6.769531 -5.023438 7.453125 -5.546875 8.109375 C -6.535156 9.390625 -7.804688 10.132812 -9.359375 10.34375 C -10.617188 10.5 -11.84375 10.421875 -13.03125 10.109375 C -13.976562 9.847656 -14.859375 9.46875 -15.671875 8.96875 C -15.972656 8.769531 -16.253906 8.546875 -16.515625 8.296875 C -17.703125 7.222656 -17.566406 6.101562 -16.109375 4.9375 C -15.617188 4.5625 -15.109375 4.222656 -14.578125 3.921875 C -13.734375 3.441406 -12.882812 3 -12.03125 2.59375 C -10.9375 2.0625 -9.847656 1.535156 -8.765625 1.015625 C -6.953125 0.171875 -5.160156 -0.675781 -3.390625 -1.53125 C -3.046875 -1.707031 -2.765625 -1.84375 -2.546875 -1.9375 C -2.234375 -2.082031 -2.007812 -2.203125 -1.875 -2.296875 C -1.738281 -2.390625 -1.628906 -2.503906 -1.546875 -2.640625 C -1.460938 -2.773438 -1.359375 -2.992188 -1.234375 -3.296875 C -1.148438 -3.535156 -1.007812 -3.847656 -0.8125 -4.234375 C -0.53125 -4.890625 -0.257812 -5.539062 0 -6.1875 C 0.1875 -6.65625 0.375 -7.113281 0.5625 -7.5625 C 0.6875 -7.851562 0.84375 -8.113281 1.03125 -8.34375 C 1.21875 -8.539062 1.441406 -8.570312 1.703125 -8.4375 C 1.890625 -8.34375 1.957031 -8.1875 1.90625 -7.96875 C 1.832031 -7.769531 1.703125 -7.421875 1.515625 -6.921875 C 1.359375 -6.492188 1.195312 -6.046875 1.03125 -5.578125 C 0.875 -5.117188 0.75 -4.71875 0.65625 -4.375 C 0.5625 -4.039062 0.53125 -3.84375 0.5625 -3.78125 C 0.601562 -3.726562 0.710938 -3.738281 0.890625 -3.8125 C 1.066406 -3.894531 1.363281 -4.046875 1.78125 -4.265625 C 1.789062 -4.265625 1.796875 -4.265625 1.796875 -4.265625 C 2.453125 -4.628906 3.097656 -4.992188 3.734375 -5.359375 C 3.972656 -5.484375 4.21875 -5.625 4.46875 -5.78125 C 4.476562 -5.78125 4.484375 -5.78125 4.484375 -5.78125 C 4.640625 -5.875 4.789062 -5.945312 4.9375 -6 C 5.09375 -6.0625 5.257812 -6.078125 5.4375 -6.046875 Z M -2.546875 -0.265625 C -2.453125 -0.460938 -2.453125 -0.644531 -2.546875 -0.8125 C -2.753906 -0.832031 -2.941406 -0.78125 -3.109375 -0.65625 C -3.148438 -0.632812 -3.195312 -0.617188 -3.25 -0.609375 C -3.96875 -0.265625 -4.6875 0.078125 -5.40625 0.421875 C -7.300781 1.304688 -9.1875 2.203125 -11.0625 3.109375 C -12.082031 3.617188 -13.109375 4.164062 -14.140625 4.75 C -14.578125 5.007812 -14.984375 5.3125 -15.359375 5.65625 C -16.078125 6.300781 -16.160156 6.925781 -15.609375 7.53125 C -15.492188 7.6875 -15.363281 7.816406 -15.21875 7.921875 C -14.519531 8.453125 -13.765625 8.863281 -12.953125 9.15625 C -12.148438 9.445312 -11.285156 9.597656 -10.359375 9.609375 C -9.003906 9.609375 -7.863281 9.0625 -6.9375 7.96875 C -6.289062 7.226562 -5.753906 6.429688 -5.328125 5.578125 C -4.660156 4.203125 -4.007812 2.816406 -3.375 1.421875 C -3.101562 0.859375 -2.828125 0.296875 -2.546875 -0.265625 Z M -2.546875 -0.265625 "/></g></g></g><g fill="#ffffff" fill-opacity="1"><g transform="translate(140.5617, 115.048652)"><g/></g></g></svg>